<svg width="120" height="40" viewBox="0 0 120 40" fill="none" xmlns="http://www.w3.org/2000/svg">
<g clip-path="url(#clip0_16_15)">
<path d="M61.8997 17.5497L61.7082 16.4003C62.5808 16.4535 62.9533 16.0917 62.9533 15.1552V9.96186H64.1771V15.1552C64.1771 16.6557 63.3151 17.5284 61.8997 17.5497ZM71.8337 13.9952C71.9933 13.9952 72.0465 14.2081 72.0465 14.5592C72.0465 14.9104 71.9933 15.1339 71.8337 15.1339H70.5992V15.1552C70.5992 16.6557 69.7372 17.5284 68.3218 17.5497L68.1303 16.4003C69.0029 16.4535 69.3754 16.0917 69.3754 15.1552V15.1339H68.1941C66.5765 15.1339 65.2463 13.9314 65.2463 12.3883C65.2463 10.8558 66.5765 9.6426 68.1941 9.6426C68.9391 9.6426 69.8436 9.92994 70.5354 10.3769L70.5992 10.3982V13.9952H71.8337ZM68.226 13.9952H69.3754V11.058C69.0242 10.8984 68.6411 10.7813 68.226 10.7813C67.1938 10.7813 66.4701 11.5156 66.4701 12.3883C66.4701 13.2715 67.1938 13.9952 68.226 13.9952ZM73.0594 9.21692C72.6976 9.21692 72.4103 8.92958 72.4103 8.54647C72.4103 8.15271 72.6976 7.87602 73.0594 7.87602C73.4319 7.87602 73.7086 8.15271 73.7086 8.54647C73.7086 8.92958 73.4319 9.21692 73.0594 9.21692ZM74.7409 9.21692C74.3791 9.21692 74.0917 8.92958 74.0917 8.54647C74.0917 8.15271 74.3791 7.87602 74.7409 7.87602C75.1134 7.87602 75.3901 8.15271 75.3901 8.54647C75.3901 8.92958 75.1134 9.21692 74.7409 9.21692ZM75.9967 13.9952C76.1563 13.9952 76.2095 14.2081 76.2095 14.5592C76.2095 14.9104 76.1563 15.1339 75.9967 15.1339H75.4113C74.8047 15.1339 74.3046 14.9743 73.9215 14.6763C73.5809 14.9849 73.0701 15.1339 72.3784 15.1339H71.8356C71.676 15.1339 71.6228 14.9104 71.6228 14.5592C71.6228 14.2081 71.676 13.9952 71.8356 13.9952H72.2826C73.0701 13.9952 73.2829 13.6972 73.2829 12.9736V9.96186H74.5068V12.9842C74.5068 13.3035 74.4748 13.5908 74.411 13.8356C74.5919 13.942 74.8154 13.9952 75.0814 13.9952H75.9967ZM78.1637 10.3024C79.5152 10.7175 80.3878 12.0796 80.3878 13.9952V15.1339H75.9927C75.833 15.1339 75.7798 14.9104 75.7798 14.5592C75.7798 14.2081 75.833 13.9952 75.9927 13.9952H79.164V13.9101C79.164 12.2818 78.4403 11.3347 77.142 11.3347L76.3758 10.5259L79.1427 7.72703L79.909 8.52518L78.1637 10.3024ZM82.9994 8.9083C85.5109 9.49361 87.0859 11.622 87.1072 14.4741C86.1175 14.8998 84.9043 15.1339 83.5847 15.1339C82.861 15.1339 82.1799 15.0594 81.5627 14.9317V13.7611C82.2225 13.9207 82.861 13.9952 83.5953 13.9952C84.4041 13.9952 85.1384 13.8994 85.8302 13.7079C85.5748 11.8668 84.5106 10.4301 82.7227 10.0151L82.9994 8.9083Z" fill="#232C5B"/>
<path d="M3.83484 24.2048C3.34531 24.2048 2.98348 23.843 2.98348 23.3322C2.98348 22.8214 3.34531 22.4595 3.83484 22.4595C4.32438 22.4595 4.68621 22.8214 4.68621 23.3322C4.68621 23.843 4.32438 24.2048 3.83484 24.2048ZM8.95368 27.6316C9.10267 27.6316 9.16652 27.9189 9.16652 28.3659C9.16652 28.8235 9.10267 29.1108 8.95368 29.1108H8.59185C8.08103 29.1108 7.66599 29.0044 7.32544 28.7916C6.87848 30.2921 5.61207 31.3244 3.86677 31.3244C1.64258 31.3244 0.216538 29.6536 0.216538 27.5465C0.216538 26.9505 0.344243 26.3013 0.5358 25.7054L2.00441 26.4184C1.90863 26.8122 1.85542 27.2166 1.85542 27.5677C1.85542 28.8767 2.62165 29.8451 3.86677 29.8451C5.10125 29.8451 5.87812 28.8767 5.87812 27.5571C5.87812 26.9186 5.70785 26.0885 5.43115 25.5457L6.83591 24.7795C7.24031 25.5351 7.48507 26.4929 7.50636 27.3975C7.66599 27.5571 7.90011 27.6316 8.18745 27.6316H8.95368ZM17.1303 27.6316C17.2793 27.6316 17.3431 27.9189 17.3431 28.3659C17.3431 28.8235 17.2793 29.1108 17.1303 29.1108H17.0239C16.3321 29.1108 15.7575 28.9406 15.3211 28.6319C14.3953 28.9512 13.3949 29.1108 12.6819 29.1108C12.0966 29.1108 11.4155 29.0151 10.628 28.6639C10.2981 28.9406 9.85111 29.1108 9.29772 29.1108H8.74433C8.59534 29.1108 8.53149 28.8235 8.53149 28.3659C8.53149 27.9189 8.59534 27.6316 8.74433 27.6316H8.89332C9.319 27.6316 9.54249 27.44 9.61698 27.025C9.7234 26.4184 9.91496 23.3854 12.2775 23.3854C14.0122 23.3854 15.4488 24.9924 15.7894 27.1846C15.9703 27.5039 16.247 27.6316 16.7472 27.6316H17.1303ZM11.2452 27.2485C11.788 27.5252 12.1924 27.6316 12.6925 27.6316C13.1395 27.6316 13.6503 27.5571 14.1718 27.4188C13.9377 26.0034 13.1182 24.8647 12.3414 24.8647C11.4581 24.8647 11.3304 26.4078 11.2452 27.2485ZM22.8353 27.6316H23.2291L22.9737 29.1108H16.9184C16.7694 29.1108 16.7055 28.8235 16.7055 28.3659C16.7055 27.9189 16.7694 27.6316 16.9184 27.6316H21.1965V26.5035C21.1965 25.4925 20.5047 24.8647 19.4512 24.8647C18.8233 24.8647 18.3018 25.0669 17.8123 25.418L17.0993 24.0452C17.791 23.6195 18.6104 23.3854 19.4512 23.3854C21.3987 23.3854 22.8353 24.6837 22.8353 26.5035V27.6316ZM27.1639 27.6316C27.3129 27.6316 27.3768 27.9189 27.3768 28.3659C27.3768 28.8235 27.3129 29.1108 27.1639 29.1108H26.0359C25.9614 30.6007 24.9823 31.5053 23.4818 31.5585L23.2583 30.0899C24.0777 30.1112 24.4076 29.7919 24.4076 28.898V23.7366H26.0465V27.6316H27.1639ZM27.7884 21.1399H29.4273V29.1108H26.9477C26.7987 29.1108 26.7348 28.8235 26.7348 28.3659C26.7348 27.9189 26.7987 27.6316 26.9477 27.6316H27.7884V21.1399ZM30.8596 29.1108V21.1399H32.4985V29.1108H30.8596ZM43.9282 27.6316C44.0772 27.6316 44.141 27.9189 44.141 28.3659C44.141 28.8235 44.0772 29.1108 43.9282 29.1108H43.1087C42.3425 29.1108 41.7998 28.9512 41.406 28.6852C40.5014 28.9619 39.4585 29.1108 38.3624 29.1108C37.5962 29.1108 36.8831 29.0363 36.2233 28.9086V27.3975C36.9257 27.5571 37.5855 27.6316 38.3517 27.6316C39.118 27.6316 39.8097 27.5571 40.4482 27.3975C40.3737 27.2059 40.3099 27.0144 40.246 26.8228L38.9903 23.2045L40.5334 22.7362L41.7891 26.3545C42.1829 27.5252 42.2467 27.6316 43.1087 27.6316H43.9282ZM48.1709 27.6316C48.3199 27.6316 48.3837 27.9189 48.3837 28.3659C48.3837 28.8235 48.3199 29.1108 48.1709 29.1108H47.6068C46.9577 29.1108 46.4362 28.9299 46.0637 28.5894C45.6806 28.9299 45.1379 29.1108 44.4249 29.1108H43.7118C43.5629 29.1108 43.499 28.8235 43.499 28.3659C43.499 27.9189 43.5629 27.6316 43.7118 27.6316H44.2227C44.8825 27.6316 45.0953 27.3549 45.0953 26.7057V23.7366H46.7342V26.7164C46.7342 26.9824 46.7129 27.2272 46.6703 27.4507C46.83 27.5677 47.0322 27.6316 47.2876 27.6316H48.1709ZM45.8403 29.9622C46.3298 29.9622 46.6916 30.324 46.6916 30.8349C46.6916 31.3457 46.3298 31.7075 45.8403 31.7075C45.3507 31.7075 44.9889 31.3457 44.9889 30.8349C44.9889 30.324 45.3507 29.9622 45.8403 29.9622ZM51.3736 27.6316H54.1831V29.1108H47.9575C47.8085 29.1108 47.7446 28.8235 47.7446 28.3659C47.7446 27.9189 47.8085 27.6316 47.9575 27.6316H49.0429C48.8407 27.2591 48.7343 26.8228 48.7343 26.3652C48.7343 24.7263 50.0859 23.4918 51.7886 23.4918C52.5548 23.4918 53.3423 23.7579 54.0447 24.0878L53.2891 25.3861C52.64 25.0988 52.1824 24.9711 51.7992 24.9711C50.9585 24.9711 50.3626 25.5564 50.3626 26.3545C50.3626 27.0037 50.7563 27.4932 51.3736 27.6316ZM65.0781 27.6316C65.227 27.6316 65.2909 27.9189 65.2909 28.3659C65.2909 28.8235 65.227 29.1108 65.0781 29.1108H64.2586C63.4924 29.1108 62.9496 28.9512 62.5559 28.6852C61.6513 28.9619 60.6084 29.1108 59.5122 29.1108C58.746 29.1108 58.033 29.0363 57.3732 28.9086V27.3975C58.0756 27.5571 58.7354 27.6316 59.5016 27.6316C60.2678 27.6316 60.9596 27.5571 61.5981 27.3975C61.5236 27.2059 61.4597 27.0144 61.3959 26.8228L60.1401 23.2045L61.6832 22.7362L62.939 26.3545C63.3328 27.5252 63.3966 27.6316 64.2586 27.6316H65.0781ZM73.2477 27.6316C73.3967 27.6316 73.4605 27.9189 73.4605 28.3659C73.4605 28.8235 73.3967 29.1108 73.2477 29.1108H73.1412C72.4495 29.1108 71.8748 28.9406 71.4385 28.6319C70.5127 28.9512 69.5123 29.1108 68.7993 29.1108C68.214 29.1108 67.5329 29.0151 66.7454 28.6639C66.4155 28.9406 65.9685 29.1108 65.4151 29.1108H64.8617C64.7127 29.1108 64.6489 28.8235 64.6489 28.3659C64.6489 27.9189 64.7127 27.6316 64.8617 27.6316H65.0107C65.4364 27.6316 65.6599 27.44 65.7344 27.025C65.8408 26.4184 66.0323 23.3854 68.3949 23.3854C70.1295 23.3854 71.5662 24.9924 71.9068 27.1846C72.0877 27.5039 72.3644 27.6316 72.8646 27.6316H73.2477ZM67.3626 27.2485C67.9053 27.5252 68.3097 27.6316 68.8099 27.6316C69.2569 27.6316 69.7677 27.5571 70.2892 27.4188C70.055 26.0034 69.2356 24.8647 68.4587 24.8647C67.5754 24.8647 67.4477 26.4078 67.3626 27.2485ZM80.3362 27.6316C80.4852 27.6316 80.549 27.9189 80.549 28.3659C80.549 28.8235 80.4852 29.1108 80.3362 29.1108H73.0357C72.8868 29.1108 72.8229 28.8235 72.8229 28.3659C72.8229 27.9189 72.8868 27.6316 73.0357 27.6316H77.3139V26.5035C77.3139 25.4925 76.6221 24.8647 75.5686 24.8647C74.9407 24.8647 74.4192 25.0669 73.9297 25.418L73.2167 24.0452C73.9084 23.6195 74.7278 23.3854 75.5686 23.3854C77.5161 23.3854 78.9527 24.6837 78.9527 26.5035V27.6316H80.3362ZM83.6517 23.3854C85.695 23.3854 87.3232 25.6202 87.2381 28.4085C86.1845 28.8874 84.9181 29.1108 84.0561 29.1108C83.4708 29.1108 82.7897 29.0151 82.0022 28.6639C81.6723 28.9406 81.2253 29.1108 80.6719 29.1108H80.1185C79.9696 29.1108 79.9057 28.8235 79.9057 28.3659C79.9057 27.9189 79.9696 27.6316 80.1185 27.6316H80.2675C80.6932 27.6316 80.9167 27.44 80.9912 27.025C81.0976 26.4184 81.2892 23.3854 83.6517 23.3854ZM82.6194 27.2485C83.1622 27.5252 83.5666 27.6316 84.0668 27.6316C84.5137 27.6316 85.0245 27.5571 85.546 27.4188C85.3119 26.0034 84.4924 24.8647 83.7156 24.8647C82.8323 24.8647 82.7046 26.4078 82.6194 27.2485Z" fill="#232C5B"/>
<g clip-path="url(#clip1_16_15)">
<path d="M115.426 14.873C113.1 14.873 111.462 14.873 111.462 14.873C111.462 14.873 111.462 13.1382 111.462 10.8677C111.462 8.59713 109.59 6.69745 107.25 6.69745C104.911 6.69745 99.0469 6.69745 99.0469 6.69745V12.8428H105.282V21.0431H113.504V27.1637H119.624C119.624 27.1637 119.624 21.4518 119.624 19.0712C119.624 16.6907 117.751 14.873 115.426 14.873Z" fill="#1C79BD"/>
<path d="M99.0488 27.1637V12.8428H92.9648C92.9648 12.8428 92.981 26.6408 92.981 29.0472C92.981 31.4536 94.8322 33.3026 97.2364 33.3026C99.6407 33.3026 113.504 33.3026 113.504 33.3026V27.1637H113.431H99.0488Z" fill="#2894E3"/>
</g>
</g>
<defs>
<clipPath id="clip0_16_15">
<rect width="120" height="40" fill="white"/>
</clipPath>
<clipPath id="clip1_16_15">
<rect width="26.6602" height="26.6052" fill="white" transform="translate(92.9639 6.69739)"/>
</clipPath>
</defs>
</svg>
